HIERARCHY
ROOT Hips
{
  OFFSET 0.000000 0.000000 0.000000
  CHANNELS 6 Xposition Yposition Zposition Zrotation Xrotation Yrotation
  JOINT RightUpLeg
  {
    OFFSET -7.011171 -8.524257 0.795777
    CHANNELS 3 Zrotation Xrotation Yrotation
    JOINT RightLeg
    {
      OFFSET -12.290656 -31.219929 18.284052
      CHANNELS 3 Zrotation Xrotation Yrotation
      JOINT RightFoot
      {
        OFFSET -7.405065 -43.057381 7.251644
        CHANNELS 3 Zrotation Xrotation Yrotation
        JOINT RightToeBase
        {
          OFFSET -5.869469 -2.190820 12.539885
          CHANNELS 3 Zrotation Xrotation Yrotation
          End Site
          {
            OFFSET 0.000000 4.000000 0.000000
          }
        }
      }
    }
  }
  JOINT LeftUpLeg
  {
    OFFSET 5.159706 -8.823431 0.467429
    CHANNELS 3 Zrotation Xrotation Yrotation
    JOINT LeftLeg
    {
      OFFSET 12.292163 -35.744160 10.406404
      CHANNELS 3 Zrotation Xrotation Yrotation
      JOINT LeftFoot
      {
        OFFSET -8.254738 -38.286129 -21.736525
        CHANNELS 3 Zrotation Xrotation Yrotation
        JOINT LeftToeBase
        {
          OFFSET 8.113782 -3.944483 10.441216
          CHANNELS 3 Zrotation Xrotation Yrotation
          End Site
          {
            OFFSET 0.000000 4.000000 0.000000
          }
        }
      }
    }
  }
  JOINT Spine
  {
    OFFSET 0.644925 12.140083 -5.103805
    CHANNELS 3 Zrotation Xrotation Yrotation
    JOINT Spine1
    {
      OFFSET 2.066843 13.878738 2.711909
      CHANNELS 3 Zrotation Xrotation Yrotation
      JOINT Spine2
      {
        OFFSET 0.877619 4.518270 3.282472
        CHANNELS 3 Zrotation Xrotation Yrotation
        JOINT Neck
        {
          OFFSET 1.799200 21.992897 0.608837
          CHANNELS 3 Zrotation Xrotation Yrotation
          JOINT Head
          {
            OFFSET 0.240098 7.126820 6.290081
            CHANNELS 3 Zrotation Xrotation Yrotation
            End Site
            {
              OFFSET 0.000000 4.000000 0.000000
            }
          }
        }
        JOINT RightShoulder
        {
          OFFSET -6.506138 12.513578 -1.090172
          CHANNELS 3 Zrotation Xrotation Yrotation
          JOINT RightArm
          {
            OFFSET -11.880345 -0.307488 1.633530
            CHANNELS 3 Zrotation Xrotation Yrotation
            JOINT RightForeArm
            {
              OFFSET -10.619799 -23.800255 1.507773
              CHANNELS 3 Zrotation Xrotation Yrotation
              JOINT RightHand
              {
                OFFSET 11.617857 -13.530082 19.328209
                CHANNELS 3 Zrotation Xrotation Yrotation
                End Site
                {
                  OFFSET 0.000000 4.000000 0.000000
                }
              }
            }
          }
        }
        JOINT LeftShoulder
        {
          OFFSET 8.024970 11.320389 -0.347999
          CHANNELS 3 Zrotation Xrotation Yrotation
          JOINT LeftArm
          {
            OFFSET 12.943959 -1.360822 1.244794
            CHANNELS 3 Zrotation Xrotation Yrotation
            JOINT LeftForeArm
            {
              OFFSET 6.183518 -24.465942 -2.385056
              CHANNELS 3 Zrotation Xrotation Yrotation
              JOINT LeftHand
              {
                OFFSET -8.028900 -14.865118 20.111027
                CHANNELS 3 Zrotation Xrotation Yrotation
                End Site
                {
                  OFFSET 0.000000 4.000000 0.000000
                }
              }
            }
          }
        }
      }
    }
  }
}
MOTION
Frames: 15
Frame Time: 0.050000
-67.252350 4.929942 128.686996 -9.019470 8.619472 -3.677224 5.540967 4.364008 -2.235721 30.258059 23.370513 4.365653 -9.935449 -5.505208 -48.556440 7.008471 -32.152880 49.287874 -6.159078 10.345398 8.263063 24.931737 -33.325086 1.879076 -25.575979 15.572249 -36.494910 13.151704 7.145009 43.383788 21.169590 -17.712320 7.241469 14.811417 -3.501149 -18.338705 -22.130452 -2.738359 20.034749 18.455945 -6.085335 -22.723738 -25.989523 6.302173 22.959156 9.003158 6.347640 -62.937809 -6.391531 26.523435 53.781235 -69.418200 39.698294 -5.756154 60.250389 -40.509298 39.450135 -0.953022 4.954385 -37.309476 0.446706 -5.075382 34.462997 9.893415 30.207865 1.052442 -10.512668 -20.233727 -3.948670
-69.868156 4.124236 132.802505 -8.894291 8.008374 -3.639927 5.561299 3.297151 -1.622532 21.335303 10.426117 6.850756 -14.019583 -4.218290 -45.285211 5.890873 -14.091647 43.864276 -5.007940 13.381145 9.972918 23.717571 -34.743111 0.241951 -26.627565 14.090769 -35.708467 13.378795 6.887497 43.090643 21.329903 -16.327721 6.736864 14.919239 -3.702957 -18.501204 -22.251171 -3.478953 20.455061 18.828518 -6.111079 -23.355726 -26.630115 5.763019 23.520740 8.770103 6.178305 -64.298176 -6.900617 28.325245 54.949815 -71.167813 39.678852 -4.024693 60.087189 -42.726835 38.439918 -1.010117 4.503841 -39.489670 0.435992 -8.264277 36.297125 8.798723 29.868128 -0.203116 -6.840899 -17.455296 -0.658068
-72.593987 3.688657 136.972183 -8.065976 7.816779 -3.343118 5.834856 3.110367 -1.221446 12.311588 -5.453981 8.126777 -15.127254 -0.128926 -41.267157 6.270898 0.913494 39.724426 -5.101943 16.146193 11.170341 22.728327 -35.944749 -1.193091 -27.592634 13.009358 -35.884880 14.252154 6.550259 43.532255 20.550464 -15.709428 6.110460 15.208068 -3.137975 -18.963980 -22.310370 -4.819958 20.789749 18.939339 -6.431085 -23.502361 -26.919975 5.812467 23.779765 8.590075 6.035891 -65.496151 -7.682226 30.090129 55.910107 -72.253991 39.100445 -3.291985 59.768514 -44.242198 37.569662 -1.174524 4.276951 -40.733076 0.648736 -10.718015 37.331809 7.852830 29.692989 -1.476851 -3.884758 -15.346130 2.129814
-75.531860 2.137285 141.402100 -5.847188 7.457375 -2.537923 6.767137 2.313729 0.090985 -1.609929 -21.917499 4.727688 -14.611969 3.222012 -36.070807 7.971697 17.159704 35.104107 -5.481856 19.938706 12.248334 20.912529 -35.912323 -4.115522 -29.338234 10.716475 -35.417817 16.251916 5.313135 43.469249 17.860794 -15.517600 4.855078 14.967218 -3.369674 -18.498370 -21.822805 -4.911927 20.520199 18.103220 -7.599906 -22.766847 -26.752932 7.699975 23.664104 8.470095 6.211096 -67.246540 -8.864628 31.409851 57.521576 -73.085543 38.594472 -2.624596 59.375993 -45.527051 36.722769 -1.217365 4.442670 -41.655768 1.130378 -14.225467 37.888038 6.229930 29.957468 -3.140717 -0.055292 -12.490036 5.822745
-78.964600 0.932395 146.529343 -4.171942 7.515604 -1.929767 6.791658 1.466114 0.670550 -3.214953 -22.476475 3.665160 -16.647848 2.320254 -34.888432 8.397043 19.691596 33.679437 -4.883495 21.846519 12.709005 20.410747 -34.405836 -6.884137 -34.109261 12.095694 -33.956276 21.999308 1.952386 43.920791 16.319592 -15.306718 3.921082 14.004109 -4.470831 -17.326950 -21.178777 -3.594629 19.984866 16.907057 -8.392311 -21.732627 -26.136927 9.005779 23.134450 8.326220 5.959594 -67.176085 -9.114774 31.597326 57.381884 -73.752325 38.984997 -1.776780 59.988363 -46.455840 36.912345 -1.642262 4.402589 -41.061896 0.220078 -15.155550 37.383459 5.796620 28.597552 -4.303129 1.788432 -10.866256 7.555750
-82.965141 0.238919 152.332062 -3.522536 8.115339 -1.711369 6.714381 0.284516 1.039746 2.597300 -17.277537 4.879426 -17.833750 2.630497 -32.565294 7.181355 12.686228 31.075049 -4.371809 22.227991 12.981664 21.778962 -28.985104 -9.780765 -40.546088 14.782171 -25.877991 31.342045 -7.377069 39.534260 15.235593 -16.716003 3.978282 14.946554 -4.227629 -18.173430 -20.869615 -3.816026 20.469108 15.931370 -8.998776 -21.617506 -26.399767 10.134456 23.388385 8.989859 5.877057 -66.524764 -8.638795 30.135614 56.628512 -75.000582 40.723761 0.714845 60.424476 -47.713410 36.823078 -3.239409 5.323867 -41.103032 -0.590876 -15.090428 37.767204 7.171208 28.475333 -5.868297 2.429793 -11.612927 8.711166
-87.096710 0.869608 158.318115 -3.858708 8.557024 -1.844030 7.484831 -0.582138 1.768367 7.755618 -8.618897 4.425160 -14.039299 4.602560 -28.475538 4.010301 -1.246446 26.710250 -2.869565 21.031291 12.926058 23.251751 -22.527431 -12.438286 -49.368968 19.544874 -17.315393 42.297269 -18.357255 37.470681 15.121940 -18.017246 4.508491 15.039983 -3.250282 -18.414202 -19.260001 -5.072276 20.285490 14.987253 -8.339773 -21.893780 -26.513554 11.109665 23.506447 9.891430 7.035523 -64.810433 -7.929644 27.205406 54.549490 -74.961699 42.450932 2.255086 61.451590 -47.630849 37.772614 -3.592302 6.937515 -40.594947 -1.335895 -12.901698 37.499456 7.179318 28.064037 -6.146079 1.632443 -13.399603 8.385564
-91.119827 1.890081 164.009125 -5.069088 9.182746 -2.285498 9.913259 0.478977 2.694868 10.520700 -3.532917 3.830525 -15.608288 1.788631 -30.095309 3.303789 -5.665583 27.855393 -2.007026 13.160565 9.874700 27.121327 -8.779298 -14.430830 -63.631204 22.900041 7.899333 51.404440 -40.913286 25.959628 16.738043 -18.388319 5.316096 14.953268 -3.172396 -18.444331 -18.858107 -5.867205 20.449375 14.278381 -8.085173 -21.598621 -26.164555 11.978031 23.205864 10.102372 8.048225 -61.902526 -6.860736 24.245686 51.694518 -72.658706 43.018004 -0.241094 62.416914 -44.304625 39.880201 -3.094900 7.527263 -40.024047 -2.492493 -11.440661 37.049057 8.230024 29.199125 -6.474139 0.284216 -16.299483 7.777921
-94.576843 2.623683 168.999878 -5.346009 8.911911 -2.378314 12.420579 4.252801 2.852515 11.470092 -2.497639 3.941522 -19.002266 -1.706838 -33.013380 3.658868 -6.165144 30.105477 -3.140386 3.209780 4.735743 31.025853 9.252023 -17.268645 -63.853085 14.322955 18.878969 41.738340 -50.387494 8.339091 17.146332 -17.132723 5.115194 13.944498 -2.876246 -17.493024 -17.458575 -5.862684 19.633225 12.903264 -7.074669 -20.365507 -24.541108 11.513823 21.737163 8.947610 8.473830 -56.504158 -5.176472 20.662595 47.116392 -67.283171 41.734201 -5.489354 60.983720 -38.531747 40.863259 -3.272414 7.170871 -37.985610 -3.690461 -9.662756 35.388211 9.142717 29.189495 -6.570734 -1.059010 -18.444377 6.886986
-97.602234 3.318816 173.643417 -5.388137 7.772229 -2.375708 14.832084 9.105294 2.441569 10.364878 -3.669282 4.154118 -20.892829 -4.224921 -34.169957 3.871754 -5.783402 30.832205 -4.904051 -4.149905 0.227394 32.184227 19.661654 -17.380194 -55.119831 8.898604 13.744781 34.275823 -42.860229 5.564427 16.968973 -14.674049 4.397568 12.425726 -3.108090 -15.753002 -16.127103 -4.901682 18.159017 12.098830 -5.871322 -19.125441 -22.748411 10.108717 20.110090 7.648018 8.207685 -51.897551 -4.502326 17.382236 43.602580 -60.699373 38.738780 -13.164835 58.394830 -30.753923 41.838297 -3.233821 6.431123 -34.502091 -4.532900 -7.227245 32.406225 9.271548 27.650449 -6.175891 -2.325134 -19.485994 5.691580
-100.447128 4.232579 178.193893 -5.465558 7.022982 -2.392748 17.634187 14.239083 1.702330 8.239535 -6.234716 4.513167 -21.072274 -5.210356 -34.723813 3.812780 -6.650007 31.281047 -7.550386 -9.141516 -3.484563 32.961169 21.177795 -14.543118 -47.353231 8.196138 6.954662 30.031137 -32.140477 9.620396 16.996066 -12.944356 3.928721 11.006777 -3.393435 -14.269578 -15.201506 -3.670389 16.843270 11.669178 -5.189299 -18.150875 -21.436591 8.830363 18.923190 6.088549 7.769030 -48.280477 -4.196819 14.666556 41.095708 -54.205826 34.158350 -22.049493 54.765787 -21.536024 42.943395 -3.348425 5.764198 -30.676439 -4.739762 -4.522042 29.180064 9.176791 25.648402 -5.536517 -3.636122 -20.145482 4.314035
-103.113136 4.842991 182.708374 -5.472034 6.740159 -2.391027 20.648276 18.976127 0.819528 5.697413 -9.238488 4.656867 -20.583266 -5.616578 -34.653713 3.576829 -8.010242 31.260141 -10.415650 -12.365778 -6.463116 33.006326 16.535044 -9.609391 -39.826145 10.438127 -0.581932 25.319801 -20.640764 15.288256 16.900441 -12.326678 3.751760 10.082003 -3.325385 -13.391995 -14.791238 -2.510794 15.868367 11.539892 -4.869143 -17.369246 -20.457118 7.778898 18.040262 4.303089 7.324268 -45.454300 -4.005997 12.546136 39.245680 -48.493434 28.552594 -29.642588 50.382904 -12.913628 43.715433 -3.514786 5.171468 -27.102257 -4.500723 -1.997592 26.213407 9.519305 24.020242 -4.627499 -5.344530 -20.954891 2.525070
-105.602608 4.958367 187.211685 -6.037617 6.817971 -2.600667 24.414179 24.141467 -0.345722 3.700357 -12.668560 5.265403 -20.747371 -6.135673 -35.043214 3.405634 -9.371966 31.523995 -13.109356 -14.840378 -9.053626 32.464161 5.762494 -1.775025 -28.783673 13.377473 -13.049066 16.177438 -5.054043 23.389426 17.506992 -12.589465 4.117062 10.086342 -2.457673 -13.686689 -15.235271 -2.287634 15.763297 11.684143 -4.355114 -16.885724 -19.721581 6.640205 17.377944 2.424698 7.054586 -43.530297 -4.142421 10.440500 38.180396 -43.212757 21.773201 -37.142148 45.149388 -3.653525 44.917815 -3.690602 4.780217 -24.107638 -4.065540 1.051557 23.956692 10.128351 22.454742 -3.674247 -7.482753 -22.286040 0.443485
-107.944298 4.768640 191.795715 -6.857979 7.645624 -2.906361 27.967437 28.249177 -1.311287 2.250403 -15.791426 6.025629 -21.077222 -6.520479 -36.495495 3.508493 -10.616038 32.827667 -14.780296 -15.396201 -10.048205 32.972406 -10.841884 6.997005 -18.208172 16.623628 -26.583747 3.778396 8.854717 31.581229 18.824859 -14.076510 5.001459 10.789819 -0.995698 -15.047528 -16.457484 -2.846126 16.492817 12.296119 -3.914018 -17.016723 -19.667340 5.489423 17.324085 1.416561 6.760186 -42.708030 -4.306251 9.157909 37.842506 -40.218551 16.131412 -42.126659 40.657268 2.979593 45.863652 -3.731408 4.403893 -22.764168 -3.821135 3.782753 23.275705 10.978326 21.389714 -2.612590 -9.813207 -23.701833 -1.793175
-110.186424 4.085648 196.553955 -7.748645 9.191081 -3.224646 30.743784 30.856945 -1.690966 1.666889 -17.139431 6.598856 -21.119798 -7.157027 -38.790677 3.758622 -12.644102 35.049808 -14.498850 -14.705179 -9.144034 33.051453 -28.183799 15.580748 -10.340664 22.077190 -39.359101 -5.468091 16.645613 38.859905 20.072842 -16.189795 6.192638 11.770665 0.089356 -16.386289 -17.345583 -3.666451 17.256629 12.927488 -3.470669 -17.565850 -20.057872 4.745450 17.667027 1.226816 6.832888 -42.589616 -5.023942 7.866732 37.915636 -38.336330 12.749862 -44.793395 37.780866 6.817238 46.522154 -3.917993 4.449830 -23.085957 -3.567980 5.959305 24.063520 12.419933 22.175119 -1.460847 -13.008304 -26.105466 -4.618296
